<svg xmlns="http://www.w3.org/2000/svg" width="44" height="44" viewBox="0 0 44 44">
  <g id="Group_73" data-name="Group 73" transform="translate(10964 -10899)">
    <path id="cart_white" d="M19.183,12.98H14.217L13.008,31.206a7.856,7.856,0,0,0,7.84,8.39h11.6a7.856,7.856,0,0,0,7.84-8.375L39.058,12.98Zm0,1.571H15.694L14.579,31.316a6.285,6.285,0,0,0,6.269,6.709h11.6a6.285,6.285,0,0,0,6.285-6.709L37.6,14.551H34.109v.99a7.463,7.463,0,1,1-14.927,0Zm13.355,0H20.755v.99a5.892,5.892,0,1,0,11.784,0Z" transform="translate(-10968.646 10894.711)" fill="#fff" fill-rule="evenodd"/>
    <rect id="Rectangle_67" data-name="Rectangle 67" width="44" height="44" transform="translate(-10964 10899)" fill="none"/>
  </g>
</svg>
